<svg width="816" height="1056" xmlns="http://www.w3.org/2000/svg" xmlns:xlink="http://www.w3.org/1999/xlink" overflow="hidden"><g><rect x="0" y="0" width="816" height="1056" fill="#FFFFFF"/><path d="M377 982.722 381.151 979.868 386.399 975.838 389.687 972.867 394.902 967.143 396.777 964.28 398.147 961.48 400.395 954.715 405.18 944.822 406.149 942.415 406.574 940.877 408.218 938.985 413.588 931.731 415.223 929.281 416.975 926.254 417.721 924.963 420.684 918.334 422.805 912.77 423.891 908.513 423.844 907.66 424.538 906.312 424.798 905.617 425.851 902.731 426.862 898.478 427.632 891.472 428.086 888.548 428.699 886.391 428.907 885.056 428.6 880.033 428.808 879.186 429.71 876.901 430.277 873.963 430.334 873.655 430.485 870.458 430.386 866.885 430.343 865.376 430.296 864.822 430.121 862.916 430.027 857.13 430.111 854.098 429.814 851.236 429.625 847.087 428.747 838.977 428.195 835.76 427.197 831.792 426.701 830.878 426.664 829.766 426.309 827.841 424.821 823.753 424.075 821.686 421.042 814.769 414.283 800.596 413.258 797.994 410.943 791.172 409.791 787.037 408.652 782.32 408.099 780.021 407.212 777.282 403.759 770.095 402.975 768.132 402.219 765.317 402.016 763.482 402.03 762.143 402.229 760.482 403.012 758.249 404.609 755.822 407.013 752.724 408.723 750.203 410.112 747.287 410.763 745.212 411.298 742.093 411.298 741.691 411.283 739.193 411.057 737.452 410.089 733.459 409.881 730.138 408.605 723.946 408.6 723.931 407.415 721.457 407.056 720.714 406.914 720.411 405.37 717.984 404.779 716.712 404.283 714.937 404.288 713.745 404.788 712.601 405.483 711.698 409.975 708.149 411.402 706.531 412.096 705.457 412.133 705.396 413.848 702.193 414.08 701.682 415.001 699.638 415.572 698.375 417.009 696.194 417.944 693.7 418.6 691.335 419.98 689.759 420.915 687.285 422.228 684.475 424.855 680.127 426.243 673.613 426.56 671.277 426.535 669.659 426.238 667.686 426.257 666.073 426.48 664.015 426.904 663.323 427.32 661.829 427.75 659.884 428.553 656.284 428.803 654.212 428.401 650.957 427.868 649.259 426.022 644.702 425.596 642.881 425.776 640.18 425.927 639.575 426.465 638.741 427.792 637.919 432.785 636.202 433.773 635.311 437.022 635.326 438.26 634.957 439.663 633.737 440.589 631.774 440.952 630.42 440.981 629.417 441.08 626.337 441.552 624.369 441.539 622.808 441.103 619.236 440.981 616.97 441.098 615.674 441.448 614.524 442.096 613.9 443.791 613.342 444.386 614.316 445.189 614.851 446.195 615.234 447.585 615.159 448.601 614.439 449.209 613.427 449.667 611.704 450.121 610.99 450.853 610.376 451.723 608.786 452.006 607.589 452.581 607.092 453.881 607.14 455.393 607.868 455.898 608.356 456.866 610.044 457.703 610.541 458.987 610.635 460.49 610.379 462.195 609.736 462.856 609.245 465.062 605.937 465.231 605.336 465.387 603.288 465.776 601.576 466.545 600.606 467.801 597.347 468.259 596.836 470.608 595.639 471.963 594.361 473.148 592.455 473.583 590.946 473.64 589.696 475.16 586.229 478.198 581.408 478.652 581.654 478.775 582.066 479.167 582.369 480.309 582.349 480.891 582.127 482.634 580.689 482.861 579.752 483.729 578.55 484.603 578.607 485.761 581.034 485.383 582.449 484.943 582.908 483.692 583.622 482.917 584.615 482.884 584.847 482.804 585.037 482.742 585.154 482.658 585.202 482.53 585.226 482.364 585.226 482.222 585.065 481.915 585.027 480.555 585.311 479.789 585.774 478.619 588.325 479.048 589.966 481.245 594.882 482.062 595.213 482.671 596.282 482.686 598.104 482.355 598.382 482.039 598.141 481.543 596.769 480.701 597.124 480.126 598.486 479.942 600.687 479.171 601.708 478.128 602.72 477.475 602.966 477.003 604.05 475.893 606.302 476.55 606.983 477.206 607.135 478.25 606.259 479.407 604.329 479.591 604.291 479.771 606.24 479.851 611.799 478.255 612.24 477.92 612.476 476.766 616.095 476.309 616.876 476.03 618.001 475.775 620.921 475.869 622.964 476.701 625.391 477.107 627.813 476.81 629.511 476.857 629.573 477.202 630.004 477.876 630.444 479.308 630.709 480.262 630.61 480.73 630.268 480.924 628.499 481.665 625.699 484.566 619.09 485.629 618.006 485.798 616.067 483.904 615.948 483.414 616.284 482.993 615.457 485.015 612.916 485.515 611.861 486.573 607.802 486.412 607.059 486.573 606.207 488.816 604.329 490.253 604.173 490.659 605.375 491.141 607.669 491.004 607.929 490.536 607.872 489.431 608.559 489.006 611.61 488.93 613.876 489.261 614.633 488.529 618.881 488.194 620.013 487.674 620.949 486.809 621.252 485.094 622.577 483.791 624.45 483.441 625.415 483.446 627.799 482.147 631.258 482.591 631.83 484.004 632.582 485.335 632.79 486.252 632.615 488.09 630.278 488.151 629.706 488.033 628.698 487.693 628.027 488.472 626.091 490.513 624.766 491.485 623.575 491.675 622.331 493.148 619.492 494.48 616.923 494.693 615.357 496.063 613.379 496.894 611.118 498.245 603.199 497.938 600.886 497.985 597.62 498.222 596.518 499.124 594.952 499.015 589.346 498.538 588.268 498.151 586.323 497.811 581.886 497.281 580.883 497.196 578.773 497.065 575.537 498.411 571.36 499.719 569.95 501.387 568.611 502.279 567.508 503.607 566.349 504.65 565.952 505.089 566.222 506.379 566.042 507.262 565.555 507.904 564.826 508.132 564.216 509.478 563.203 511.58 561.117 512.639 560.673 513.804 560.634 516.974 559.47 520.891 559.807 524.277 560.091 525.24 560.379 526.087 560.393 526.946 559.745 532.104 558.577 535.618 556.509 535.873 555.37 535.821 554.561 535.543 553.642 535.057 553.151 530.21 552.36 529.469 552.583 529.412 552.857 529.071 553.079 525.279 551.59 522.888 548.992 521.315 546.947 519.53 541.748 518.987 539.677 518.586 536.223 518.665 535.504 519.199 534.25 520.673 532.557 521.788 530.555 522.09 529.78 522.142 529.132 523.219 527.911 526.964 526.445 527.636 525.872 528.108 525.295 528.486 524.301 530.527 522.319 532.694 519.485 532.936 518.131 532.794 517.356 532.066 516.386 529.469 514.669 527.787 514.465 527.083 514.006 526.828 513.733 527.4 513.391 528.411 513.76 533.04 513.681 534.158 514.011 535.335 514.797 538.873 514.49 541.009 515.307 543.804 515.09 544.381 514.967 545.245 514.348 545.831 513.306 545.94 512.304 544.9 511.291 544.83 511.065 545.859 510.251 546.468 510 548.212 510.733 548.986 510.554 549.623 510.065 549.761 510.094 550.271 510.203 550.885 511.281 551.149 512.611 553.946 513.718 554.158 514.547 557.012 515.549 560.328 517.622 562.892 518.89 564.394 519.802 564.579 520.233 565.769 521.164 572.179 525.46 573.753 525.147 574.296 524.04 574.923 523.431 576.057 523.379 577.163 524.065 579.133 524.926 582.934 523.804 586.222 525.02 587.833 525.976 592.353 527.031 593.279 527.901 593.964 528.545 595.282 530.48 597.257 532.684 598.736 534.004 599.638 535.315 599.846 535.972 599.855 537.633 600.294 539.799 600.785 541.04 601.419 541.943 602.537 542.837 604.205 543.579 605.816 543.674 607.129 543.125 607.422 542.822 608.031 542.695 609.609 542.899 610.544 543.334 612.198 542.936 615.372 542.956 617.838 543.75 620.162 545.775 622.141 548.173 623.577 549.483 626.496 551.282 627.965 551.561 629.24 551.414 630.709 552.104 632.203 552.067 633.467 551.749 635.536 553.68 637.989 554.958 640.019 556.41 643.742 558.524 646.137 559.073 647.772 558.596 648.05 558.373 648.111 557.696 648.721 557.706 650.246 558.931 650.704 559.006 652.136 557.663 652.792 557.834 653.751 559.438 656.514 563 657.577 563.776 658.257 564.557 658.507 565.252 660.303 566.501 661.366 566.776 661.634 567.082 661.933 567.679 661.475 569.335 659.495 570.479 659.537 571.284 660.119 572.636 661.711 574.927 661.998 575.343 662.211 575.348 663.349 577.788 663.458 578.92 663.846 579.605 664.171 579.999 665.098 580.14 666.052 581.791 667.861 582.33 667.884 582.558 667.615 582.841 667.724 583.858 668.721 587.317 669.546 588.291 670.25 590.761 670.237 591.532 671.224 593.443 671.493 593.572 671.979 594.332 672.49 595.634 672.041 596.05 670.671 595.743 669.476 595.104 666.292 594.138 664.828 593.126 663.963 591.797 661.309 590.941 658.517 592.53 657.86 593.321 656.992 595.193 656.94 595.595 657.649 597.356 658.583 597.881 658.928 598.325 658.583 599.272 658.323 599.281 657.449 600.454 658.125 604.874 658.574 606.193 659.084 607.106 659.75 607.802 661.493 608.677 662.018 610.101 662.437 610.479 665.905 612.334 668.602 612.893 668.644 615.476 668.659 616.124 669.263 617.358 670.458 618.763 671.04 623.007 671.068 627.089 670.973 627.516 671.092 628.538 671.71 630.491 672.287 631.347 673.208 632.232 673.028 635.113 672.14 639.404 670.738 642.168 670.245 644.655 670.213 646.25 670.5 649.812 670.964 651.695 671.04 652.684 670.331 655.693 670.346 656.005 670.505 659.004 669.915 663.901 669.948 665.68 670.222 667.331 670.5 668.011 670.515 668.552 669.637 672.332 669.576 674.034 669.873 676.074 669.533 676.972 668.985 677.36 668.277 677.082 667.256 677.09 666.5 677.682 664.251 680.8 663.241 681.689 662.858 682.489 662.377 684.301 662.06 684.636 660.987 685.185 660.7 684.254 659.235 683.666 657.855 683.567 656.128 684.031 655.432 684.395 654.148 685.862 653.122 687.466 652.254 689.94 652.004 691.889 651.97 693.384 651.153 697.443 650.969 698.341 650.988 701.758 651.115 702.58 650.738 704.743 649.542 706.484 649.287 707.373 649.405 708.504 649.987 709.985 648.56 710.273 646.888 710.15 644.469 710.671 642.051 712.629 641.418 714.484 642.174 717.563 641.092 718.23 638.135 716.835 636.836 718.041 636.599 718.368 635.182 718.841 633.161 718.888 629.689 718.548 628.107 719.475 627.564 720.019 627.478 720.544 626.407 721.968 625.716 722.162 625.116 723.652 624.752 725.067 624.729 726.4 623.364 727.053 623.307 727.948 623.176 729.969 622.693 734.282 622.212 742.387 621.994 743.602 620.7 745.646 619.907 745.557 619.808 745.75 619.977 746.758 621.367 750.85 624.026 755.775 625.102 756.755 628.962 758.874 630.724 755.671 631.744 755.41 633.326 759.157 637.092 760.212 639.26 761.083 642.003 763.543 643.401 764.793 646.349 763.094 649.623 758.77 651.559 755.345 651.655 755.216 653.199 753.116 653.208 753.102 654.639 750.784 655.995 749.89 656.453 749.498 656.869 749.346 657.096 749.446 657.322 749.923 658.593 750.605 660.071 749.55 660.672 748.007 660.581 747.733 660.417 747.227 659.259 746.337 658.517 743.021 659.798 740.466 661.002 738.437 661.049 736.558 662.197 734.429 662.079 732.702 663.378 729.609 664.969 730.522 664.271 733.062 664.823 734.632 666.869 733.724 668.54 732.542 670.562 731.312 671.814 728.303 670.349 727.725 668.233 727.201 665.923 726.723 665.376 725.497 668.074 725.492 672.816 725.487 673.883 724.878 675.782 722.99 676.826 720.828 677.364 719.3 677.374 718.774 680.231 717.791 682.858 717.441 684.124 717.516 687.048 716.547 687.912 716.078 689.07 715.118 690.137 714.81 692.541 714.971 693.642 714.659 694.242 714.299 695.215 713.15 696.499 710.117 696.92 709.635 699.036 709.393 699.745 709.09 701.616 706.99 702.347 707.004 702.532 707.283 703.316 707.382 704.827 706.479 705.905 706.305 708.19 708.499 709.386 709.142 713.009 709.951 716.424 711.404 716.882 712.502 717.331 712.989 718.867 713.221 720.491 714.418 721.134 715.155 722.097 717.091 723.58 719.721 723.788 719.877 725.314 723.354 726.735 727.304 728.767 729.069 729.877 730.83 729.929 731.534 729.555 731.775 729.537 731.989 729.853 732.58 730.784 733.275 732.427 740.541 732.399 742.008 732.603 743.092 733.061 743.891 733.822 749.639 734 750.982 733.968 752.085 734.761 759.849 735.044 761.353 735.437 762.337 736.32 766.689 738.223 771.415 738.265 772.102 739.452 775.91 740.779 778.962 740.887 779.652 740.827 780.736 741.474 787.075 741.478 789.365 742.12 791.058 742.277 793.111 742.078 794.346 743.297 803.718 743.699 805.175 744.653 807.006 745.285 810.237 745.456 811.084 746.182 813.151 746.627 816.127 747.099 817.944 748.454 819.628 749.773 822.651 752.994 828.754 753.589 829.005 753.056 829.677 752.932 830.045 752.924 830.462 753.075 831.002 753.33 831.494 754 832.33 753.735 833.566 752.801 835.321 751.299 837.061 750.684 838.363 750.052 841.371 749.626 843.032 749.65 843.742 749.924 846.343 749.896 847.139 749.664 848.969 749.215 850.351 749.012 852.299 749.069 852.664 749.187 853.038 750.075 855.138 750.476 856.846 750.51 857.707 749.282 861.08 749.343 862.911 748.526 864.96 747.339 869.194 747.543 872.453 746.91 875.226 746.551 875.992 744.506 877.918 744.378 878.102 744.024 878.864 743.887 879.053 742.744 880.142 742.13 880.931 741.984 881.14 741.63 882.478 741.152 882.894 739.881 883.197 739.678 883.179 739.325 883.008 738.81 882.54 738.101 882.266 737.368 882.318 736.741 882.587 736.594 882.673 736.089 883.155 735.026 884.2 734.638 885.014 733.632 886.565 733.018 887.016 733.098 882.686 732.281 882.435 733.198 880.435 732.399 878.817 731.294 879.162 730.533 878.651 730.335 877.837 731.336 876.764 732.513 876.744 733.146 876.03 732.924 875.287 732.164 874.578 732.177 874.327 733.42 874.327 734.332 874.171 733.977 872.837 735.224 871.451 736.339 872.43 737.147 872.354 737.695 870.944 737.439 869.321 736.074 868.537 735.083 868.915 734.488 868.195 733.202 867.264 732.229 866.956 730.907 867.07 730.491 867.789 730.35 867.803 728.762 867.959 726.524 869.582 725.541 871.266 724.252 871.729 723.245 871.431 722.829 871.578 721.506 873.182 721.011 874.9 721.152 876.067 721.866 876.669 723.788 877.469 723.939 878.065 723.845 878.727 723.967 879.876 724.591 881.162 724.549 881.963 724.374 882.11 723.954 881.566 723.293 881.286 721.204 881.41 720.089 881.797 719.121 882.681 718.852 883.269 718.739 884.068 718.059 884.919 717.988 885.048 716.853 887.124 716.283 889.783 716.287 893.208 717.534 895.569 717.553 895.611 716.405 900.669 716.254 901.833 715.815 902.883 715.455 903.366 714.053 904.278 713.727 904.728 712.962 906.516 713.415 907.363 711.587 907.992 710.42 908.938 707.94 909.884 705.395 910.301 701.502 911.862 700.198 912.978 698.833 915.202 698.682 915.694 697.728 918.703 696.348 921.31 696.335 921.787 696.127 928.827 697.435 934.523 696.551 938.961 694.479 939.344 693.567 940.782 691.885 941.685 691.857 942.221 692.055 942.291 692.211 943.333 692.069 945.792 692.281 946.001 692.286 946.014 692.707 947.178 692.258 948.569 691.979 948.744 690.416 948.934 690.393 950.026 689.773 950.887 689.211 950.835 688.777 951.076 687.048 952.884 686.424 954.397 686.438 955.444 685.427 956.854 683.878 956.281 683.108 956.271 682.518 956.489 681.427 957.368 680.59 958.679 680.005 960.775 679.877 962.833 679.433 963.997 677.927 965.468 677.354 965.761 676.774 964.729 675.966 965.185 674.799 967.322 673.732 970.015 672.66 970.993 671.645 971.467 671.196 972.115 671.035 972.65 670.969 974.939 671.555 977.195 672.518 979.443 672.839 980.54 671.96 981.004 670.445 981.359 670.284 981.582 666.471 981.804 666.297 981.833 665.976 981.856 665.896 981.86 658.866 982.352 658.843 982.352 658.12 982.399 658.003 982.404 654.403 982.674 654.143 982.694 651.856 982.863 650.176 982.972 648.126 983.19 643.426 983.526 643.416 983.526 635.036 984.051 633.227 984.24 633.213 984.24 631.541 984.307 622.93 984.921 621.149 984.988 611.148 985.702 591.498 986.936 591.49 986.936 588.358 987.093 588.098 987.107 584.743 987.296 571.183 987.988 557.616 988.654 552.732 989 552.713 987.665 552.68 986.137 552.651 984.69 552.643 984.141 552.623 983.493 552.609 981.491 551.481 981.535 550.937 981.548 550.933 981.548 541.599 981.752 539.133 981.823 539.071 981.813 538.202 981.833 538.093 981.851 532.44 981.893 532.297 981.875 525.529 982.012 525.019 982.017 520.749 982.092 518.623 982.111 518.613 982.111 515.477 982.144 512.052 982.168 511.92 982.196 509.775 982.196 508.925 982.201 508.057 982.225 506.97 982.24 505.269 982.268 502.752 982.3 498.542 982.372 498.113 982.381 490.853 982.499 490.65 982.481 482.884 982.608 482.817 982.598 481.576 982.627 481.368 982.622 480.696 982.622 479.393 982.637 479.129 982.642 478.344 982.65 472.709 982.697 470.494 982.717 470.452 982.717 468.316 982.727 466.899 982.746 466.894 982.746 459.88 982.759 459.62 982.764 458.421 982.759 450.928 982.754 450.924 982.754 449.503 982.75 445.18 982.702 443.305 982.707 437.868 982.722 437.835 982.727 437.627 982.722 429.819 982.811 429.082 982.811 425.653 982.797 405.1 982.883 403.574 982.892 403.15 982.892 393.074 982.845 392.975 982.849 392.961 982.849 383.811 982.779 383.674 982.783 379.106 982.731 378.775 982.731 377.104 982.722Z" fill="#D9D9D9" fill-rule="evenodd"/><path d="M90 415.165 95.7885 411.394 97.4944 410.642 99.1577 411.304 102.56 409.614 104.814 409.018 110.829 406.826 115.961 405.923 120.464 404.584 121.858 403.926 124.547 401.839 125.417 400.712 126.414 399.917 127.784 399.202 130.997 396.605 133.195 394.035 136.852 390.371 138.227 389.448 141.601 387.901 147.29 386.727 151.056 386.543 152.068 386.836 153.513 387.556 154.071 388.261 155.319 388.379 159.34 387.012 162.09 386.642 163.852 386.013 165.044 386.079 165.658 386.471 167.231 386.657 170 386.505 171.772 386.046 175.274 384.602 185.287 379.576 187.022 378.507 189.199 376.453 191.987 372.53 194.109 370.343 195.248 369.472 196.08 369.311 196.477 369.894 197.015 370.244 198.571 370.433 200.47 370.115 202.393 368.9 203.244 368.725 203.697 369.444 205.658 369.482 206.561 369.283 207.728 368.749 208.819 368.034 210.086 366.713 210.983 365.331 211.721 364.191 212.604 362.222 213.531 359.109 214.741 357.461 217.476 355.942 218.053 355.867 220.794 352.87 222.82 351.815 223.756 351.895 224.862 351.309 227.716 347.873 230.169 345.725 232.38 344.116 233.675 343.391 234.956 343.287 236.302 342.677 237.418 341.939 239.406 341.588 240.286 341.186 245.295 336.647 246.245 335.79 248.129 333.51 248.744 331.867 249.67 330.462 252.978 326.889 255.331 325.397 260.567 323.287 262.226 322.316 263.699 321.157 267.367 320.353 268.312 319.776 269.039 319.037 269.167 318.582 269.105 318.204 271.979 317.224 274.464 316.988 275.334 316.705 279.658 316.06 280.357 316.212 282.507 316.018 282.596 315.995 282.615 315.417 283.235 315.308 288.101 315 292.038 315.147 294.159 315.384 294.504 315.645 300.922 316.084 302.174 315.956 305.671 317.475 307.707 318.862 308.865 319.965 309.243 323.888 309.077 324.446 308.373 324.48 306.705 323.893 305.996 323.974 305.382 324.2 304.9 324.702 302.089 325.417 300.879 326.254 299.953 326.08 299.348 325.568 298.289 325.038 297.623 324.962 295.597 324.906 290.875 325.469 289.642 325.772 288.981 327.257 288.929 327.93 289.155 328.649 289.76 329.326 290.346 329.496 291.008 330.519 291.041 331.043 290.625 331.782 290.384 331.966 289.43 331.929 288.612 332.132 286.963 333.264 284.752 335.129 281.689 336.008 281.264 336.283 280.342 337.319 278.263 340.244 277.308 340.485 276.614 340.931 275.424 342.729 272.895 345.393 270.4 346.165 269.554 345.999 268.954 346.112 267.722 347.197 267.608 347.296 266.951 348.426 266.512 350.107 266.418 352.009 266.653 352.866 266.866 353.084 267.263 353.055 267.224 353.481 266.592 354.228 265.968 354.616 265.813 354.583 265.727 354.119 265.372 353.712 264.768 353.519 264.041 353.699 263.255 354.3 262.651 355.279 262.603 355.639 262.732 355.785 262.774 356.363 262.665 357.049 261.885 358.905 258.459 360.93 257.925 361.048 257.656 361.389 257.378 362.237 257.288 363.523 256.834 365.649 256.096 368.024 255.573 368.824 254.623 369.71 253.054 372.141 252.51 372.757 249.879 373.362 249.433 376.325 249.23 377.225 248.825 379.051 247.081 383.358 246.816 387.494 246.301 389.681 246.376 390.329 247.062 392.677 247.889 394.976 246.292 395.416 245.045 397.476 245.068 398.435 246.656 399.293 248.399 398.185 249.802 395.019 250.189 394.238 251.731 392.146 254.178 389.557 254.48 388.275 252.727 387.958 253.923 385.733 255.303 385.16 255.577 386.912 257.127 386.562 260.34 383.235 262.707 381.314 264.301 380.311 265.709 378.697 271.951 375.412 272.915 374.707 273.85 374.541 274.705 375.08 273.283 377.22 270.231 380.031 268.25 381.153 266.88 382.374 265.741 383.897 265.018 385.502 262.39 390.016 262.32 391.072 263.577 391.247 264.924 388.725 265.732 386.818 268.245 384.063 271.185 381.734 272.248 381.711 275.055 381.2 277.125 380.376 278.684 380.031 280.017 380.277 281.651 381.019 282.615 381.455 284.861 381.721 286.311 381.867 288.726 381.55 293.181 381.555 295.208 383.585 297.463 384.636 297.86 384.589 298.993 383.983 299.831 383.831 300.109 384.2 301.697 385.066 302.556 385.19 302.991 385.563 303.034 386.046 302.835 386.297 302.982 386.718 303.837 387.376 304.645 387.489 305.396 386.922 305.845 386.95 306.308 388.72 306.157 389.056 306.333 390.257 306.544 390.935 306.871 391.351 307.957 391.617 309.494 391.446 310.217 390.835 310.051 390.059 310.117 389.756 310.637 389.676 311.119 390.329 311.214 391.427 311.11 391.839 311.294 392.265 312.064 392.889 312.919 393.221 313.695 393.079 314.38 393.278 314.786 394.095 316.368 396.074 317.375 396.722 317.692 400.225 318.301 402.856 319.053 404.039 323.008 407.825 322.899 409.098 324.577 412.633 325.385 413.221 327.374 414.053 327.483 414.532 327.393 415.151 327.653 416.486 328.668 417.536 329.369 417.916 331.891 418.072 332.52 418.833 334.07 419.103 334.24 420.622 333.318 421.493 333.328 421.687 334.16 423.703 334.679 424.47 333.494 424.99 333.187 426.084 333.551 427.106 334.179 427.953 335.341 429.131 336.598 429.912 339.835 430.963 344.022 431.446 348.563 431.191 350.774 430.424 354.607 430.868 355.477 430.745 356.208 430.637 356.927 429.771 358.665 428.412 361.189 427.891 362.488 427.243 363.523 426.32 364.2 426.424 366.756 427.159 367.748 428.336 367.876 429.141 369.138 432.08 369.193 432.723 368.925 433.041 369.118 433.537 370.673 434.423 372.611 434.252 373.786 435.151 374.193 436.032 374.193 437.134 374.897 437.636 376.91 438.014 377.936 438.01 379.666 437.589 380.077 436.216 380.256 434.938 380.685 434.233 381.952 432.946 383.516 432.795 384.995 432.795 386.139 433.254 386.527 433.661 386.545 434.091 388.171 436.802 388.761 437.452 389.172 437.541 390.122 435.634 389.933 434.679 390.122 433.684 390.345 430.598 389.366 430.002 388.894 429.018 388.312 425.241 389.413 423.949 390.821 423.249 391.016 423.713 391.408 423.783 392.571 423.557 392.858 423.311 394.904 426.452 394.762 428.269 394.517 429.354 394.319 429.86 393.789 430.334 393.431 431.313 393.359 432.047 394.14 432.922 394.881 433.013 395.434 432.274 395.642 431.621 396.119 431.176 396.341 431.214 396.535 432.899 396.364 433.869 398.208 434.679 400.504 431.867 403.146 429.775 405.555 427.504 406.448 426.206 406.614 425.421 407.63 424.403 408.386 424.347 409.638 424.786 410.219 424.692 413.981 423.031 417.241 421.295 430.241 412.402 432.353 410.589 434.229 410.182 435.713 412.009 436.336 412.265 437.324 412.312 439.38 411.928 442.371 410.769 445.735 410.049 449.057 409.657 451.429 408.73 455.13 407.981 456.202 408.062 458.092 408.199 461.801 409.085 465.364 409.491 468.271 409.495 471.933 409.085 475.487 409.231 478.477 409.699 482.078 409.704 484.729 409.5 486.927 408.933 495.895 404.939 502.265 401.252 504.897 400.197 506.419 399.907 511.602 398.909 520.392 399.448 522.574 399.112 524.73 398.052 526.302 397.655 528.297 397.57 529.152 397.727 529.351 397.943 526.51 400.793 524.938 402.824 523.959 404.693 523.397 406.453 523.218 407.934 523.377 409.061 522.891 414.92 522.811 417.725 522.976 419.992 523.322 421.488 523.501 423.154 523.68 423.225 523.845 424.081 523.723 424.48 522.249 425.128 521.658 425.705 521.416 426.444 521.535 427.815 521.966 429.07 523.288 430.948 523.954 431.484 524.8 431.857 528.491 432.194 529.625 431.71 530.258 430.868 531.071 430.637 531.307 431.678 532.337 432.865 532.885 433.145 534.643 433.358 536.118 433.173 537.209 432.785 538.173 433.897 538.669 435.241 539.841 435.757 542.204 435.464 544.685 434.56 548.342 432.766 551.016 430.888 551.914 430.428 553.904 431.02 555.741 430.679 556.943 432.169 557.67 433.921 558.993 435.227 558.421 435.838 558.029 436.832 558.304 437.683 558.714 438.763 559.764 438.927 562.315 438.289 566.115 435.79 566.946 435.639 568.084 436.519 568.699 436.306 569.427 435.511 569.96 433.987 569.96 432.946 569.299 432.42 570.703 429.865 572.672 428.412 574.737 428.577 576.298 427.437 576.383 427.385 578.83 427.489 579.307 427.726 580.319 428.351 582.946 429.131 584.33 429.093 585.167 428.89 585.257 428.81 586.031 428.118 588.21 424.195 590.8 423.428 592.151 424.91 593.073 424.967 594.112 424.697 594.627 424.356 595.194 424.21 596.05 424.433 596.526 425.496 596.97 425.871 597.552 427.432 596.546 431.427 595.005 437.499 595.733 442.889 597.438 446.959 598.526 448.686 597.467 449.528 597.939 454.98 599.419 456.311 598.629 458.118 597.835 458.989 597.287 459.126 596.512 459.235 595.619 460.097 595.525 460.191 595.359 460.239 595.237 460.243 595.156 460.201 595.128 460.116 595.104 459.96 595.081 459.774 594.499 459.164 592.609 458.952 589.647 459.434 588.569 460.39 587.322 462.477 587.681 464.091 587.52 465.577 587.232 466.05 589.731 467.49 591.692 467.078 593.209 464.953 593.673 465.203 597.453 465.278 598.284 465.97 598.44 466.581 599.56 468.662 599.92 469.008 600.448 469.146 602.793 469.117 605.581 470.735 605.245 471.734 604.617 471.465 603.568 472.175 602.82 472.932 602.216 474.062 601.98 474.919 602.046 475.417 602.505 475.989 603.709 476.917 605.727 479.713 607.527 480.854 608.907 482.193 611.01 482.714 612.012 482.543 612.612 482.245 613.018 482.496 613.335 483.518 613.694 483.802 615.551 484.498 616.246 485.946 618.49 486.519 618.883 486.316 620.631 482.686 621.878 483.04 622.918 485.336 624.902 486.05 626.305 485.023 627.161 483.343 627.113 481.758 626.349 479.496 624.482 478.942 623.13 477.021 622.091 473.528 622.738 472.937 623.013 472.922 624.619 473.647 625.697 474.602 626.367 474.872 627.648 474.697 629.907 474.767 630.289 474.422 630.549 473.57 631.83 473.258 635.303 473.509 637.41 473.012 638.181 473.187 639.036 473.888 640.412 474.531 641.815 474.541 642.264 475.241 642.576 476.234 642.604 476.822 643.218 477.735 644.145 478.057 644.745 479.325 645.099 480.561 645.363 482.416 646.049 483.551 649.186 484.824 649.711 484.806 650.353 485.179 650.925 486.05 651 486.528 650.358 488.019 649.795 488.407 648.179 493.069 647.665 493.755 646.946 494.36 644.083 495.17 642.344 494.834 638.285 493.049 636.168 491.577 633.762 492.836 631.188 493.069 630.077 492.69 629.278 492.671 627.383 493.054 627.18 493.429 625.772 493.32 624.543 492.865 624.335 492.198 623.938 491.937 622.753 492.175 622.374 492.506 621.727 492.453 621.255 491.195 620.801 491.157 619.279 490.465 618.055 489.718 617.933 489.486 615.522 489.859 614.701 490.764 612.163 489.969 609.479 489.856 608.581 490.546 606.87 490.872 601.757 489.638 600.931 490.078 599.692 489.449 599.532 488.956 599.206 488.791 598.951 488.838 596.806 489.25 594.282 490.395 593.8 490.045 588.919 490.357 587.591 491.734 581.491 491.867 579.638 493.618 577.786 494.797 573.462 491.81 572.697 490.03 572.238 489.557 570.636 490.641 569.209 489.638 568.983 489.122 569.025 488.747 568.888 488.421 566.998 488.123 566.445 488.592 566.492 490.457 565.604 490.792 565.009 490.708 564.833 490.323 564.801 489.695 565.108 488.138 564.829 486.472 564.182 484.872 563.894 484.489 562.287 483.399 560.897 483.595 560.463 484.124 558.639 484.186 555.454 481.53 554.717 481.199 553.899 481.47 553.171 482.009 552.264 483.324 551.844 484.251 551.867 485.43 552.481 489.836 552.637 490.025 552.576 490.499 552.382 490.76 551.064 490.83 549.519 491.284 548.951 492.004 548.285 493.816 548.252 494.285 548.786 495.321 549.943 495.927 550.393 496.751 550.436 497.252 548.768 498.34 549.878 502.188 550.369 503.111 551.564 504.588 551.48 504.9 551.148 505.118 549.972 505.202 549.821 505.383 549.599 506.505 547.874 506.708 544.093 504.082 540.918 502.581 540.323 501.483 540.375 500.599 539.983 499.538 539.108 499.33 537.432 498.228 536.884 497.531 534.993 496.651 533.793 495.857 532.144 492.927 529.123 489.452 526.643 487.158 525.793 486.627 522.39 485.236 519.683 484.668 518.535 484.204 516.275 482.652 515.425 482.25 514.513 482.131 511.384 482.543 510.832 482.87 508.776 481.053 505.209 480.504 503.469 479.77 501.131 478.123 499.529 477.446 497.879 477.527 497.044 478.156 495.853 478.724 494.827 477.167 493.338 476.49 492.133 476.443 490.924 477.177 490.896 477.394 491.07 477.545 490.527 478.421 487.787 477.143 486.203 477.091 485.187 477.361 484.469 477.778 482.919 479.154 477.867 484.958 476.762 487.527 474.282 490.442 473.794 491.621 473.048 492.406 470.354 493.23 468.147 492.633 466.574 492.676 464.349 491.971 462.741 491.251 461.13 490.972 460.554 491.053 459.883 491.421 459.34 492.426 458.546 492.724 457.019 492.392 456.675 492.382 455.29 492.349 454.416 492.515 453.13 493.481 452.029 494.744 451.751 495.941 451.769 496.637 452.488 497.138 453.06 497.801 452.776 498.114 452.223 497.933 449.487 496.121 445.835 494.465 441.596 493.173 439.876 492.818 438.033 492.662 435.694 492.898 433.894 493.764 433.535 494.1 432.783 494.191 429.754 493.097 428.809 493.126 427.811 493.603 427.122 494.81 426.753 495.137 425.582 495.251 425.034 494.81 423.143 495.582 420.057 498.719 419.387 499.789 418.711 506.135 417.369 508.199 416.887 511.563 417.166 512.411 416.178 513.352 415.677 513.447 413.57 513.39 413.093 512.727 411.926 512.917 411.202 513.39 410.91 513.878 410.867 514.237 411.009 514.64 410.919 515.043 410.622 515.96 409.993 516.788 408.698 517.238 408.344 517.096 407.843 516.897 406.78 517.167 406.208 518.43 405.376 518.123 404.724 517.541 403.882 517.759 403.575 518.303 403.174 519.609 403.013 521.446 402.347 522.61 402.021 522.898 401.681 522.926 399.299 521.952 398.458 522.477 398.056 523.291 398.136 525.974 397.91 527.792 397.414 527.886 395.967 527.404 395.221 527.707 394.839 528.09 394.607 528.62 395.491 533.149 395.496 534.758 394.923 534.001 394.163 533.419 392.915 533.678 391.473 533.007 389.754 531.535 389.631 530.863 389.101 529.902 388.057 529.78 387.264 527.569 387.239 526.49 387.438 525.714 388.308 524.905 389.621 525.264 390.675 524.8 391.535 523.594 391.554 522.799 391.247 522.581 391.072 521.45 391.785 520.465 393.047 520.044 394.205 518.288 394.068 516.433 394.39 514.271 395.504 514.095 395.93 514.588 397.107 515.056 398.274 514.725 398.808 513.523 398.463 513.139 398.411 512.789 398.813 512.009 399.276 511.545 399.909 511.659 400.414 511.227 400.551 510.607 400.268 509.576 400.585 508.478 401.029 507.972 401.364 507.92 401.917 507.498 402.702 505.989 402.782 505.53 402.678 503.424 402.399 502.525 401.709 501.639 400.721 500.906 399.578 500.437 398.307 500.631 397.499 502.231 396.676 503.22 395.84 503.291 394.847 504.191 394.239 505.15 394.291 507.111 393.184 508.208 387.07 506.84 386.47 506.448 385.34 504.578 384.76 504.214 384.041 504.276 382.113 505.095 381.939 505.743 382.085 508.63 382.491 508.951 382.703 509.594 382.807 510.802 381.783 512.771 380.492 514.455 378.853 515.582 378.668 516.15 378.9 516.699 378.819 517.119 377.44 518.909 377.17 520.399 377.42 521.19 374.832 522.605 374.297 522.392 372.794 522.434 372.076 522.652 370.682 524.01 368.796 524.237 367.138 526.92 366.925 526.66 366.897 525.501 366.704 524.683 365.763 524.143 365.504 523.05 365.692 521.407 366.089 520.371 366.307 517.521 365.815 515.998 365.811 512.95 365.271 510.797 363.93 508.322 362.81 507.474 361.789 507.659 361.104 508.005 360.098 509.443 359.649 510.537 359.525 511.819 359.564 514.432 359.077 515.908 359.044 516.803 359.195 517.451 359.753 517.664 359.966 518.08 359.582 519.382 359.233 519.845 358.504 521.483 359.389 522.69 356.449 523.542 356.124 523.821 356.095 524.219 355.112 525.297 353.657 525.776 350.141 528.075 348.1 531.043 345.869 535.34 344.962 536.561 342.557 540.84 342.476 541.062 340.43 546.712 338.975 549.751 337.85 550.977 336.726 553.035 336.631 553.608 336.707 554.242 336.967 554.824 337.302 555.051 337.141 555.6 336.442 556.755 335.223 557.636 334.505 558.554 334.089 559.87 331.754 562.122 331.117 564.421 328.465 568.241 327.993 569.51 327.842 570.925 325.649 573.244 321.704 578.937 318.636 582.718 317.436 583.579 315.58 585.623 314.3 587.89 313.576 589.58 313.336 590.621 313.482 591.705 314.285 593.021 315.083 593.801 315.088 593.939 314.952 594 313.061 593.347 312.513 593.068 312.017 592.95 311.918 592.865 311.861 592.713 311.7 592.609 311.323 592.637 310.325 592.572 309.975 592.301 309.593 592.42 309.357 592.425 309.258 592.33 309.258 591.828 308.785 591.175 308.468 590.943 308.35 590.797 307.892 589.76 307.868 589.628 308.081 589.297 308.1 589.183 307.447 588.108 307.079 587.721 306.757 587.475 306.54 587.351 306.082 587.266 305.845 587.143 305.529 586.849 305.473 586.693 305.212 586.343 304.673 586.078 304.253 585.605 304.135 585.335 303.879 585.079 303.624 584.918 303.275 584.843 303.195 584.758 303.166 584.625 303.279 584.128 302.769 581.847 302.779 581.715 302.972 581.261 303.237 580.967 303.931 580.593 304.078 580.427 304.087 580.044 304.003 579.637 304.035 579.306 304.409 578.804 304.508 578.393 304.461 578.203 304.22 578.019 304.201 577.839 304.291 577.641 304.782 577.053 304.881 577.006 305.183 577.03 305.283 576.978 305.354 576.869 305.354 576.253 305.562 575.156 305.681 574.724 305.572 574.488 306.086 573.711 306.44 573.438 306.469 573.13 306.393 572.591 306.507 572.027 306.908 571.313 307.169 571.01 307.409 570.314 307.419 570.106 308.123 569.207 308.435 568.969 309.097 567.991 309.281 567.905 309.409 567.773 309.593 567.408 309.56 566.817 309.598 566.68 309.744 566.504 310.079 566.31 310.721 565.317 310.788 564.635 310.773 563.996 310.718 563.816 310.538 563.632 310.302 563.579 310.056 563.058 310.131 562.581 310.069 562.046 310.014 561.876 308.7 560.896 308.629 560.764 308.624 560.347 308.586 560.253 307.949 559.95 307.702 559.505 307.348 559.372 307.045 559.358 306.564 559.58 306.185 559.865 305.983 560.049 305.85 560.357 304.975 560.782 303.762 562.288 303.393 562.842 303.346 563.001 302.306 563.361 302.25 563.461 302.258 563.745 302.037 564.011 301.375 564.123 300.803 563.788 300.619 563.783 300.416 563.778 299.66 563.944 299.263 563.599 299.07 563.499 298.237 563.465 297.444 563.726 296.385 563.547 296.338 563.664 296.229 563.768 296.059 563.788 295.828 563.612 295.597 563.579 295.374 563.726 295.242 564.252 295.128 564.408 294.278 564.914 294.136 564.938 294.037 564.828 294.028 564.716 294.159 564.446 294.127 564.114 293.933 563.873 293.455 563.764 293.272 563.664 293.063 563.447 292.95 563.244 292.922 563.102 292.893 562.837 292.784 562.609 292.662 562.562 292.444 561.27 292.421 561.034 292.109 560.622 292.132 560.352 292.293 560.12 292.515 559.917 293.031 559.679 293.465 559.334 293.687 558.771 293.465 558.378 293.455 558.279 293.512 558.08 294.189 557.749 294.325 557.522 294.306 556.859 294.241 556.608 294.14 556.439 293.782 556.084 293.451 555.212 293.488 554.498 293.347 554.091 293.371 553.925 293.909 553.13 294.556 552.812 294.779 552.32 295.506 552.042 295.756 551.729 295.808 551.563 296.224 551.213 296.749 551 297.42 550.523 297.424 550.295 297.553 550.078 298.029 549.481 298.02 549.334 297.902 549.022 297.95 548.785 298.611 548.085 298.663 547.919 298.715 547.347 298.837 546.978 299.083 546.546 299.145 546.362 299.117 545.771 298.663 545.615 298.393 544.682 298.257 543.457 298.223 542.69 298.247 542.325 298.346 542.018 298.346 541.871 298.049 541.251 297.519 540.645 297.112 540.234 296.428 539.808 296.021 539.433 295.964 539.353 295.922 538.994 296.088 538.35 296.281 538.269 297.553 538.71 298.172 538.989 298.871 539.088 299.296 538.989 299.419 538.866 299.593 538.653 299.636 538.421 299.731 537.608 299.726 536.85 299.792 536.684 299.883 536.551 300.245 536.357 300.582 536.031 300.681 534.947 300.582 533.613 300.336 532.978 299.424 532.709 299.112 532.458 299.093 532.084 299.031 531.9 298.426 531.27 297.982 530.115 297.411 529.5 297.042 529.301 296.858 529.117 296.824 528.407 296.99 528.07 297.018 527.849 296.919 527.635 296.91 527.389 296.966 527.295 298.597 526.878 298.961 526.461 299.254 526.324 300.378 526.116 300.431 526.041 300.454 525.86 300.458 525.289 300.349 524.971 299.906 524.484 298.762 523.683 298.512 523.452 298.185 522.988 298.181 522.918 298.522 522.548 298.525 522.382 298.465 522.16 298.12 521.758 297.945 521.63 296.39 521.18 295.912 520.939 295.151 520.314 294.452 519.746 293.753 518.539 293.8 517.896 293.867 517.849 293.782 517.541 293.465 517.091 293.044 516.973 292.846 516.565 292.525 516.448 292.322 516.453 291.537 516.523 291.197 516.727 291.003 516.699 290.875 516.58 290.776 516.22 290.662 516.054 290.507 515.908 290.408 515.885 290.252 515.894 290.153 516.003 289.085 516.14 288.716 515.828 288.513 515.733 288.064 515.994 287.285 516.054 286.443 515.927 286.046 516.041 285.711 515.937 285.607 515.79 285.669 515.634 285.432 515.25 284.992 514.976 284.638 514.886 283.858 514.574 284.118 513.983 284.251 513.939 284.326 513.717 284.199 513.017 283.788 511.823 283.636 511.615 283.503 511.55 283.145 511.535 282.677 511.687 282.228 511.9 281.368 511.853 280.872 512.117 280.575 512.221 280.258 512.208 280.059 512.136 279.558 512.151 279.516 512.193 279.454 512.52 279.138 512.831 278.825 512.965 278.651 513.144 278.027 513.163 276.898 513.191 276.552 513.03 276.398 512.719 276.284 512.633 275.565 512.647 275.121 512.529 274.677 511.99 274.383 511.848 274.147 511.114 274.214 510.967 274.232 510.82 274.063 510.518 273.902 510.409 273.373 510.338 272.291 509.708 272.102 509.467 271.77 508.558 271.861 508.251 271.983 508.085 272.466 507.622 272.868 507.352 273.056 506.954 273.595 506.391 273.803 506.244 274.02 506.212 274.224 506.031 274.918 504.986 275.707 504.333 275.825 504.147 276.033 503.57 276.237 503.282 276.312 503.268 276.643 503.419 276.842 503.305 277.02 502.476 276.964 502.051 276.336 501.465 276.16 501.379 275.191 501.498 274.837 501.351 274.71 501.081 274.445 499.548 274.403 499.486 274.398 499.05 274.445 498.635 274.539 498.35 274.762 497.92 274.993 497.711 275.305 497.541 275.305 497.389 275.221 497.143 274.71 496.594 274.569 496.567 273.699 496.537 273.575 496.594 273.439 496.656 273.165 496.699 272.801 496.604 272.707 496.495 272.72 496.401 272.829 496.235 272.725 496.055 271.634 495.515 271.242 495.151 271.204 495.085 271.208 494.956 270.216 494.498 269.857 494.494 269.787 494.574 269.289 494.432 269.087 494.246 268.86 493.788 268.666 493.523 267.722 492.908 267.541 492.841 267.192 492.771 267.083 492.794 266.71 493.163 266.72 493.712 266.091 493.802 265.963 493.769 265.657 493.476 265.08 493.287 264.948 493.258 264.603 493.372 264.182 493.395 263.657 493.201 263.431 493.035 263.275 492.823 263.176 492.585 263.114 492.297 263.171 492.051 263.151 491.554 262.925 491.47 262.839 491.478 262.839 491.525 262.462 491.473 262.325 491.564 262.083 491.937 261.342 492.155 260.122 492.411 259.376 492.86 259.145 492.836 259.012 492.538 258.691 492.255 258.005 491.862 257.41 491.663 257.113 491.772 256.488 491.279 256.347 491.058 255.988 490.716 252.35 487.962 251.934 488.119 252.004 488.369 251.622 488.994 251.088 489.25 250.786 489.254 250.479 489.141 249.906 489.306 249.807 489.368 249.49 489.784 249.321 489.804 249.046 489.628 248.829 489.41 248.895 489.226 248.81 489.017 248.598 488.757 247.955 488.497 247.822 488.27 247.506 487.99 247.237 487.957 246.773 488.052 246.646 488 246.334 487.612 246.376 487.295 246.339 487.134 245.994 486.907 245.441 486.746 245.011 486.699 244.69 486.949 244.647 487.205 244.733 487.433 244.567 487.64 244.326 487.759 243.687 487.839 243.23 487.687 242.837 487.329 242.785 487.186 242.889 486.964 242.889 486.878 242.743 486.713 242.629 486.703 242.195 485.179 242.185 484.744 242.11 484.606 241.921 484.498 241.51 484.399 240.819 484.432 240.531 484.271 240.068 484.214 239.954 484.248 239.974 484.36 239.86 484.574 239.515 484.953 239.346 485.065 238.556 485.151 238.216 484.896 237.366 484.792 236.87 485 236.746 485.231 236.109 485.78 235.428 485.984 235.367 485.922 235.13 485.217 235.107 484.881 235.065 484.801 234.724 484.498 234.455 484.493 234.247 484.655 233.949 485.256 233.6 486.14 233.576 486.671 233.429 487.622 233.335 487.835 233.151 487.957 232.541 487.835 231.719 487.886 231.652 487.934 231.582 488.218 231.426 488.232 229.795 487.684 229.507 487.731 229.374 487.739 229.314 487.697 229.223 487.607 229.267 487.433 229.327 487.309 229.309 487.21 229.025 486.992 228.727 486.519 228.756 486.41 228.826 486.41 228.732 485.809 228.491 485.16 228.132 484.806 227.797 484.725 227.121 484.559 226.558 484.251 226.072 484.209 225.609 484.417 225.377 484.834 224.947 484.749 224.725 484.124 224.753 483.727 224.46 483.429 223.992 483.178 223.236 483.064 222.712 483.225 222.235 483.471 222.083 483.598 221.89 483.864 221.701 483.93 221.583 483.897 221.29 483.642 221.171 483.618 221.096 483.608 221.02 483.637 220.978 483.665 220.916 483.717 220.883 483.788 220.799 483.973 220.264 484.313 219.957 484.36 219.783 484.228 219.654 483.712 219.65 483.471 219.683 483.315 220.098 482.794 220.113 482.515 220.066 482.444 219.65 482.335 219.045 482.396 218.695 482.193 218.323 482.61 218.667 482.992 218.7 483.225 218.638 483.372 218.209 483.343 217.377 483.57 217.079 483.481 217.098 483.404 217.018 483.292 216.692 483.007 215.812 482.59 215.515 482.496 215.293 482.51 215.085 482.392 214.82 482.16 214.532 481.673 214.471 481.47 214.329 481.304 207.751 477.205 206.91 476.684 206.481 476.405 203.125 474.308 203.115 474.305 195.101 469.245 192.408 468.454 189.469 467.513 189.058 467.376 186.841 466.708 186.298 466.519 186.137 466.443 185.949 466.391 184.942 466.06 184.801 466.013 180.264 464.612 180.23 464.602 162.695 459.061 159.647 458.038 151.274 455.426 148.939 454.635 141.19 452.197 129.712 448.473 129.575 448.426 128.861 448.237 128.034 447.972 112.772 442.988 112.71 442.946 112.705 442.837 112.729 442.775 112.866 442.661 112.932 442.363 112.88 442.137 112.833 442.033 112.809 441.871 112.89 441.63 113.079 441.526 113.14 441.394 113.154 440.868 113.017 440.381 112.951 440.32 112.847 440.32 112.743 440.267 112.71 440.134 112.715 439.974 112.71 439.86 112.436 439.463 112.082 439.178 111.869 438.862 111.817 438.492 111.822 438.492 112.044 437.768 111.911 437.659 111.807 437.646 111.486 437.304 111.113 436.675 110.952 435.851 110.839 435.61 110.48 435.355 110.125 434.404 110.054 433.878 110.149 433.097 110.13 432.842 109.804 431.432 109.568 431.077 109.544 430.868 109.549 430.806 108.93 430.802 108.67 430.689 108.627 429.222 108.552 428.79 107.857 428.488 107.734 428.351 107.545 427.996 107.659 427.712 107.876 427.561 107.942 427.432 107.919 427.328 107.583 426.906 106.931 426.457 106.756 426.206 106.199 424.758 105.991 423.83 105.995 423.627 105.868 423.41 105.556 423.202 105.409 423.197 104.89 423.386 104.762 423.363 104.715 423.169 104.729 423.017 104.866 422.633 104.8 422.43 104.701 422.412 104.308 422.715 103.727 422.904 103.514 422.946 103.344 422.874 102.617 422.918 102.489 423.055 102.338 423.125 102.135 423.121 101.96 422.993 101.979 422.847 101.983 422.715 101.88 422.577 101.719 422.591 101.582 422.563 101.549 422.459 101.563 422.303 101.582 422.165 101.587 422.057 101.261 421.606 101.506 421.109 101.459 420.948 101.114 420.537 101.01 420.608 100.958 420.793 100.58 421.171 100.396 421.166 99.8287 420.892 99.7059 421.015 99.6964 421.133 99.3751 421.238 98.9498 421.266 98.7135 421.133 98.6238 421.138 98.222 421.27 98.1182 421.37 98.1135 421.37 97.8725 421.228 97.8298 420.722 98.1087 420.485 98.3403 419.922 98.5103 418.976 98.4773 418.681 97.7449 417.839 97.3999 417.901 97.2438 417.83 97.1447 417.603 97.1967 417.347 96.8612 416.978 96.4642 416.869 95.8546 417.072 95.5711 417.645 95.368 418.686 95.3113 418.772 95.1931 418.795 95.0371 418.733 94.8813 418.403 94.7726 418.37 94.7206 418.403 94.4087 418.251 93.733 418.323 93.3644 418.464 92.306 419.065 91.8098 419.165 91.6633 418.999 91.6491 418.725 91.4317 417.963 91.3372 417.764 91.3041 417.764 91.1766 417.759 90.9073 417.37 90.7561 416.817 90.2457 416.203 90.2363 416.203 90.1842 415.516Z" fill="#D9D9D9" fill-rule="evenodd"/><path d="M477 535.015 477.758 531.921 478.614 531.04 478.925 530.187 478.885 529.21 478.537 527.988 478.853 525.193 479.157 524.377 479.923 523.297 480.463 522.97 481.33 521.715 481.861 519.449 481.87 517.725 481.687 517.146 481.629 516.298 481.727 516 483.029 516.331 483.483 517.009 484.111 517.122 484.908 517.109 486.369 516.592 486.743 516.625 487.033 517.577 486.57 517.989 486.177 518.042 485.661 518.819 486.03 518.971 486.971 519.913 487.35 522.359 487.372 523.164 486.703 524.045 486.458 525.202 486.65 526.453 486.913 527.169 487.715 528.585 488 532.2 487.68 533.555 486.312 535.115 485.644 535.541 484.962 535.703 484.703 535.982 484.422 537.276 483.884 537.654 482.302 538 477.941 536.826 477.575 536.432Z" fill="#D9D9D9" fill-rule="evenodd"/><path d="M556 502.697 556.308 500.105 556.715 500 557.718 500.321 558.282 500.907 559.473 502.768 559.922 503.94 561.083 506.982 561.979 507.635 565.223 509.017 567.146 508.705 568.887 509.229 573.802 511.321 574.263 511.139 574.689 510.592 574.796 509.747 574.628 509.061 574.806 508.926 575.51 510.034 576.163 511.542 580 512.929 579.982 513.217 578.898 514.82 578.763 516.059 577.018 517.345 576.92 517.628 577.06 518.252 576.122 518.891 575.071 519 574.162 518.478 572.463 518.324 570.992 517.849 569.788 518.06 568.421 517.311 567.875 516.452 567.701 515.305 566.409 514.168 564.341 511.167 563.389 510.439 561.732 509.714 561.269 509.238 561.041 508.47 560.468 507.372 559.249 506.114 558.25 504.578 557.811 504.18 556.962 503.887 556.056 503.128Z" fill="#D9D9D9" fill-rule="evenodd"/><path d="M441 589.247 441.502 587.854 442.303 587.136 442.845 587 443.86 587.131 446.317 587.431 447.47 587.77 447.81 587.967 448.959 589.434 449 591.48 448.648 592.372 448.333 595.388 448.452 596.115 448.974 597.016 449 598.212 447.153 599 445.731 598.099 445.111 597.184 443.544 595.463 442.158 594.454 441.594 593.825 441.434 593.38Z" fill="#D9D9D9" fill-rule="evenodd"/><path d="M484.603 508 486.954 508.812 490.971 511.589 491 513.822 489.958 515 486.135 513.669 484 511.495Z" fill="#D9D9D9" fill-rule="evenodd"/><path d="M434 604.422 434.163 603.538 435.156 600.964 435.427 600.639 436.991 600 438.905 600.808 440 602.044 438.887 601.95 438.608 602.129 438.361 602.58 438.241 602.98 438.294 603.524 438.892 604.718 437.178 605.738 435.79 606 434.146 605.366Z" fill="#D9D9D9" fill-rule="evenodd"/><path d="M389.736 533 391.05 533.417 392.051 534.313 393.938 536.803 395.487 538.227 396 539.583 395.844 540.295 394.546 542 393.505 541.855 392.428 538.15 389.787 535.553 388 533.737Z" fill="#D9D9D9" fill-rule="evenodd"/><path d="M471 519.328 471.974 518 474.789 518.462 475 520.906 473.291 524 471.409 523.947Z" fill="#D9D9D9" fill-rule="evenodd"/><path d="M456 553 458.158 553.408 460.202 554.83 461 557.781 460.362 561 456.853 555.696Z" fill="#D9D9D9" fill-rule="evenodd"/><path d="M496 513.842 497.169 509.599 498.301 509 499 511.686 498.489 514.042 497.222 515Z" fill="#D9D9D9" fill-rule="evenodd"/><path d="M382.279 545.191 383.557 545 384.477 546.437 385 548.803 383.993 550 382.558 548.482 382 546.691Z" fill="#D9D9D9" fill-rule="evenodd"/><path d="M314 322.561 315.095 321.906 316.183 321 318.612 321.395 319 322.321 317.917 324 316.616 323.975 314.991 323.501Z" fill="#D9D9D9" fill-rule="evenodd"/><path d="M607.238 474 609.446 474.294 609.888 475.376 610.878 476.161 611 478 608.724 476.835 607 475.596Z" fill="#D9D9D9" fill-rule="evenodd"/><path d="M557 489.78 557.459 489 558.529 490.378 559 491.244 558.422 492.111 557.531 493 557.02 492.144Z" fill="#D9D9D9" fill-rule="evenodd"/><path d="M463 548.937 463.837 548 464.437 548.137 464.963 549.086 465 550.29 464.774 551 463.516 549.883Z" fill="#D9D9D9" fill-rule="evenodd"/><path d="M561 491.005 561.715 490 562.779 490.532 563 491.495 562.496 493 561.677 492.016Z" fill="#D9D9D9" fill-rule="evenodd"/><g><g><g><path d="M170.568 83.2791 170.568 40.9803 177.893 35.2673 177.893 30.4148 153.814 30.4148 137.077 71.6149 119.938 30.4148 96.7011 30.4148 93.9361 35.9631 102.579 39.4422 102.579 80.4958 95.3095 86.2088 95.3095 91.1345 115.855 91.1345 118.711 85.513 109.903 82.1987 109.903 44.6792 129.13 91.1345 136.528 91.1345 155.205 45.375 155.205 80.4958 147.954 86.2088 147.954 91.1345 176.428 91.1345 179.284 85.513 170.568 83.2791Z" fill="#C10230" transform="matrix(1.001 0 0 1 52.6329 891)"/><path d="M240.096 70.6077 235.243 68.6118 224.202 84.4327 207.154 84.4327 207.154 63.3565 217.591 63.3565 222.261 70.6077 226.161 68.7034 226.161 51.3627 222.737 51.3627 217.701 56.8012 207.154 56.8012 207.154 37.0434 224.897 37.0434 234.474 51.3261 239.327 49.2387 239.327 29.0232 233.302 30.4148 186.005 30.4148 183.221 35.9631 191.864 38.4351 191.864 80.4225 184.613 86.1173 184.613 91.0613 234.071 91.0613 240.096 92.4529 240.096 70.6077Z" fill="#C10230" transform="matrix(1.001 0 0 1 52.6329 891)"/><path d="M272.836 85.4398 261.483 79.7267 265.145 70.5711 288.364 70.5711 292.685 81.155 283.823 86.0623 283.823 91.0064 314.146 91.0064 316.929 85.3848 308.982 81.5944 287.485 28.9316 272.433 32.96 253.298 79.6351 244.582 86.0623 244.582 91.0064 269.961 91.0064ZM276.755 42.1156 285.654 64.089 267.745 64.089Z" fill="#C10230" transform="matrix(1.001 0 0 1 52.6329 891)"/><path d="M44.844 29.9936 15.4363 13.9348 15.4363 91.0064 44.844 107.047 74.2334 90.988 74.2334 13.9531ZM46.1258 78.7379 46.1258 56.7645 61.8367 48.1766 61.8367 48.1766 71.6332 42.8298 71.6332 64.8031ZM33.4178 73.2446 33.4178 51.2712 36.9885 53.2854 36.9885 75.2588ZM39.5887 54.7137 43.5439 56.8744 43.5439 78.7379 39.5887 76.5772ZM71.6515 40.0648 67.9893 42.0424 67.9893 20.1423 71.6515 18.1646ZM65.444 43.4523 61.7818 45.4299 61.7818 23.4566 65.444 21.4973ZM18.0365 18.183 43.5439 32.1177 43.5439 54.0911 33.4178 48.5978 33.4178 48.5978 33.4178 48.5978 18.0365 40.0831ZM18.0365 67.623 43.5439 81.5761 43.5439 103.549 18.0365 89.5781ZM61.855 72.9882 65.5173 71.0106 65.5173 92.984 61.855 94.9432ZM71.6515 89.4682 67.9893 91.4458 67.9893 69.5823 71.6515 67.6047Z" fill="#C10230" transform="matrix(1.001 0 0 1 52.6329 891)"/></g></g></g><text fill="#404040" font-family="Arial,Arial_MSFontService,sans-serif" font-weight="400" font-size="19" transform="translate(67.2023 860)">Tanner Delpier, PhD</text><text fill="#404040" font-family="Arial,Arial_MSFontService,sans-serif" font-weight="400" font-size="19" transform="translate(67.2023 883)">Labor Economist</text><text fill="#404040" font-family="Arial,Arial_MSFontService,sans-serif" font-weight="700" font-size="37" transform="translate(67.2023 828)">Fiscal Year</text><text fill="#404040" font-family="Arial,Arial_MSFontService,sans-serif" font-weight="700" font-size="37" transform="translate(272.136 828)">202</text><text fill="#404040" font-family="Arial,Arial_MSFontService,sans-serif" font-weight="700" font-size="37" transform="translate(334.636 828)">5</text></g></svg>